<?xml version="1.0" encoding="UTF-8" standalone="no"?>
<!DOCTYPE svg PUBLIC "-//W3C//DTD SVG 1.0//EN" "http://www.w3.org/TR/2001/REC-SVG-20010904/DTD/svg10.dtd">
<!-- Created with Inkscape (http://www.inkscape.org/) -->

<!-- DOCTYPE and viewBox fix by in[k]firmary (http://inkfirmary.48design.de) -->
<svg
   xmlns:svg="http://www.w3.org/2000/svg"
   xmlns="http://www.w3.org/2000/svg"
   xmlns:inkscape="http://www.inkscape.org/namespaces/inkscape"
   version="1.0"
   width="100%"
   height="100%"
   id="svg2"
   style="display:inline"
   viewBox="0 0 50 50">
  <g
     id="layer2"
     style="display:inline">
    <path
       d="m 132.18924,204.03061 a 58.427643,79.577919 0 1 1 -116.855286,0 58.427643,79.577919 0 1 1 116.855286,0 z"
       transform="matrix(0.3423038,0,0,0.251326,-0.2488703,-26.278203)"
       id="path3158"
       style="fill:#000000;fill-opacity:1;stroke-width:1;stroke-miterlimit:4;stroke-dasharray:none" />
    <text
       x="6.9223909"
       y="24.834225"
       id="text2818"
       xml:space="preserve"
       style="font-size:40px;font-style:normal;font-weight:normal;fill:#000000;fill-opacity:1;stroke:none;font-family:Bitstream Vera Sans"><tspan
         x="6.9223909"
         y="24.834225"
         id="tspan2820" /></text>
    <path
       d="m 41.422887,18.198765 c 0.739726,1.785856 -0.10833,3.833244 -1.894186,4.57297 -1.785856,0.739726 -3.833244,-0.10833 -4.57297,-1.894186 -0.739725,-1.785855 0.108331,-3.833243 1.894187,-4.57297 1.785856,-0.739725 3.833244,0.108331 4.572969,1.894186 z m -4.78e-4,10.926739 c 0.739725,1.785857 -0.108331,3.833245 -1.894187,4.572971 -1.785856,0.739726 -3.833244,-0.10833 -4.57297,-1.894187 -0.739726,-1.785855 0.10833,-3.833243 1.894187,-4.572969 1.785855,-0.739726 3.833244,0.10833 4.57297,1.894185 z m -7.727388,7.725356 c 0.739726,1.785857 -0.10833,3.833245 -1.894185,4.57297 -1.785857,0.739726 -3.833245,-0.10833 -4.572971,-1.894186 -0.739725,-1.785855 0.10833,-3.833244 1.894187,-4.572969 1.785855,-0.739726 3.833243,0.10833 4.572969,1.894185 z m -10.926739,-0.0024 c 0.739726,1.785857 -0.108331,3.833245 -1.894186,4.572971 -1.785856,0.739725 -3.833244,-0.10833 -4.57297,-1.894187 -0.739726,-1.785855 0.10833,-3.833243 1.894186,-4.572969 1.785856,-0.739726 3.833245,0.10833 4.57297,1.894185 z m -7.724003,-7.728729 c 0.739726,1.785857 -0.108331,3.833245 -1.894187,4.572971 -1.785856,0.739726 -3.8332441,-0.10833 -4.57297,-1.894187 -0.7397256,-1.785855 0.1083303,-3.833243 1.894187,-4.572969 1.785855,-0.739726 3.833244,0.10833 4.57297,1.894185 z m 0.0043,-10.926738 c 0.739726,1.785856 -0.10833,3.833244 -1.894186,4.57297 -1.785856,0.739726 -3.8332442,-0.10833 -4.5729701,-1.894186 -0.7397256,-1.785856 0.1083303,-3.833244 1.8941871,-4.57297 1.785855,-0.739725 3.833243,0.108331 4.572969,1.894186 z m 7.730092,-7.72265 c 0.739726,1.785856 -0.10833,3.833245 -1.894186,4.57297 -1.785856,0.739726 -3.833244,-0.10833 -4.57297,-1.894186 -0.739725,-1.785855 0.108331,-3.8332435 1.894187,-4.5729694 1.785855,-0.7397256 3.833243,0.1083303 4.572969,1.8941854 z m 10.926738,0.0062 c 0.739726,1.785856 -0.108331,3.833245 -1.894186,4.57297 -1.785857,0.739726 -3.833245,-0.10833 -4.572971,-1.894186 -0.739725,-1.785856 0.108331,-3.8332438 1.894187,-4.5729697 1.785855,-0.7397256 3.833244,0.1083299 4.57297,1.8941857 z m 7.717473,7.722203 c 0.739726,1.785856 -0.108331,3.833244 -1.894187,4.57297 -1.785856,0.739726 -3.833244,-0.10833 -4.57297,-1.894186 -0.739725,-1.785855 0.108331,-3.833243 1.894187,-4.57297 1.785856,-0.739725 3.833245,0.108331 4.57297,1.894186 z"
       id="path2471-8"
       style="fill:#ffffff;fill-opacity:1;stroke:none;display:inline" />
  </g>
</svg>
