<svg xmlns="http://www.w3.org/2000/svg" viewBox="0 0 83.33 250"><path fill="#8c8c8c" d="M0 0h83.33v250H0z"/><g stroke="#000" stroke-width="4.15"><path fill="#ff0" d="M70.83 45.83v.01c0 16-13.16 29.16-29.16 29.16S12.5 61.84 12.5 45.84v-.01c0-16 13.17-29.17 29.17-29.17s29.16 13.17 29.16 29.17z"/><path fill="red" d="M70.83 204.16v.01c0 16-13.16 29.17-29.16 29.17S12.5 220.17 12.5 204.17v0c0-16 13.17-29.18 29.17-29.18s29.16 13.17 29.16 29.17zm0-79.16v0c0 16-13.16 29.17-29.16 29.17S12.5 141.01 12.5 125.01V125c0-16 13.17-29.17 29.17-29.17S70.83 109 70.83 125z"/></g></svg>