<?xml version="1.0" encoding="UTF-8" standalone="no"?>
<!DOCTYPE svg PUBLIC "-//W3C//DTD SVG 1.0//EN" "http://www.w3.org/TR/2001/REC-SVG-20010904/DTD/svg10.dtd">
<!-- Created with Inkscape (http://www.inkscape.org/) -->

<!-- DOCTYPE and viewBox fix by in[k]firmary (http://inkfirmary.48design.de) -->
<svg
   xmlns:svg="http://www.w3.org/2000/svg"
   xmlns="http://www.w3.org/2000/svg"
   version="1.0"
   width="100%"
   height="100%"
   viewBox="0 0 50 50"
   id="svg2"
   style="display:inline">
  <defs
     id="defs5" />
  <rect
     width="31.5"
     height="45.5"
     x="9.25"
     y="2.25"
     id="rect2816"
     style="fill:#000000;fill-opacity:1;stroke:#000000;stroke-width:0.5;stroke-opacity:1" />
  <rect
     width="26"
     height="40"
     x="12"
     y="5"
     id="rect2820"
     style="fill:#ffffff;fill-opacity:1;stroke:none" />
  <path
     d="m 18.307844,13.329819 15.137579,0 0,5.087604 -10.253479,0 -0.547896,3.443917 c 0.709647,-0.333941 1.411474,-0.584408 2.105485,-0.7514 0.693991,-0.166963 1.380164,-0.250452 2.058523,-0.250467 2.29593,1.5e-5 4.158774,0.694016 5.588538,2.082004 1.429728,1.388015 2.144601,3.136062 2.144621,5.244146 -2e-5,1.481935 -0.367893,2.906462 -1.103619,4.273588 -0.735764,1.367133 -1.779374,2.410743 -3.130833,3.130833 -1.351491,0.720092 -3.081275,1.080137 -5.189357,1.080138 -1.513245,-10e-7 -2.809931,-0.143497 -3.89006,-0.43049 -1.080143,-0.286992 -1.99852,-0.714873 -2.755134,-1.283641 -0.756621,-0.568767 -1.369742,-1.213196 -1.839364,-1.93329 -0.469627,-0.720088 -0.860981,-1.617593 -1.174063,-2.692517 l 6.449517,-0.704437 c 0.156534,1.03318 0.521798,1.818497 1.095792,2.355952 0.573977,0.537463 1.257541,0.806193 2.050696,0.806189 0.887058,4e-6 1.620194,-0.33656 2.19941,-1.009693 0.579191,-0.673124 0.868793,-1.677599 0.868806,-3.013428 -1.3e-5,-1.367121 -0.292224,-2.368987 -0.876633,-3.0056 -0.584434,-0.636591 -1.361924,-0.954892 -2.332471,-0.954904 -0.61574,1.2e-5 -1.210598,0.151335 -1.784575,0.453971 -0.427889,0.219169 -0.897513,0.615741 -1.408875,1.189717 l -5.431996,-0.782709 z"
     id="path2817"
     style="font-size:32.05973434px;font-style:normal;font-variant:normal;font-weight:900;font-stretch:normal;text-align:start;line-height:125%;writing-mode:lr-tb;text-anchor:start;fill:#000000;fill-opacity:1;stroke:none;font-family:Arial Black;-inkscape-font-specification:Arial Black Heavy" />
</svg>
