<?xml version="1.0" encoding="UTF-8" standalone="no"?>
<!DOCTYPE svg PUBLIC "-//W3C//DTD SVG 1.0//EN" "http://www.w3.org/TR/2001/REC-SVG-20010904/DTD/svg10.dtd">
<!-- Created with Inkscape (http://www.inkscape.org/) -->

<!-- DOCTYPE and viewBox fix by in[k]firmary (http://inkfirmary.48design.de) -->
<svg
   xmlns:svg="http://www.w3.org/2000/svg"
   xmlns="http://www.w3.org/2000/svg"
   version="1.0"
   width="100%"
   height="100%"
   viewBox="0 0 50 50"
   id="svg2"
   style="display:inline">
  <defs
     id="defs5" />
  <rect
     width="31.5"
     height="45.5"
     x="9.25"
     y="2.25"
     id="rect2816"
     style="fill:#ffffff;fill-opacity:1;stroke:#000000;stroke-width:0.5;stroke-opacity:1" />
  <rect
     width="26"
     height="40"
     x="12"
     y="5"
     id="rect2820"
     style="fill:#ffd900;fill-opacity:1;stroke:none" />
  <path
     d="m 21.892647,20.162864 -6.026854,-1.080137 c 0.500932,-1.920226 1.463662,-3.391716 2.888194,-4.414475 1.424523,-1.022717 3.4413,-1.534086 6.050336,-1.534109 2.99515,2.3e-5 5.160641,0.558355 6.496479,1.674996 1.335804,1.116685 2.003714,2.52034 2.003733,4.210971 -1.9e-5,0.991447 -0.271357,1.888952 -0.814016,2.692517 -0.542696,0.803594 -1.36193,1.508031 -2.457705,2.113312 0.887053,0.219171 1.5654,0.474856 2.035042,0.767055 0.761818,0.469636 1.354067,1.087975 1.776748,1.855018 0.422643,0.767064 0.633974,1.682832 0.633994,2.747307 -2e-5,1.335828 -0.34963,2.616859 -1.048829,3.843098 -0.699238,1.226245 -1.706322,2.170712 -3.021255,2.833404 -1.314964,0.662693 -3.042139,0.994039 -5.181529,0.99404 -2.087231,-1e-6 -3.733526,-0.245249 -4.93889,-0.735746 -1.205375,-0.490497 -2.196805,-1.207979 -2.974291,-2.152448 -0.777493,-0.944465 -1.37496,-2.131571 -1.792403,-3.561323 l 6.371246,-0.845325 c 0.250459,1.283647 0.639204,2.173325 1.166236,2.669035 0.527014,0.495719 1.197534,0.743577 2.01156,0.743573 0.85575,4e-6 1.568014,-0.313079 2.136794,-0.93925 0.568755,-0.626162 0.853139,-1.46105 0.853152,-2.504667 -1.3e-5,-1.064475 -0.273961,-1.888927 -0.821843,-2.473358 -0.547909,-0.584412 -1.291481,-0.876623 -2.230719,-0.876633 -0.500944,10e-6 -1.189726,0.125243 -2.06635,0.3757 l 0.328737,-4.555363 c 0.354819,0.0522 0.631375,0.07829 0.829671,0.07827 0.834878,1.4e-5 1.531488,-0.266106 2.089831,-0.798363 0.55832,-0.532226 0.837486,-1.16361 0.837498,-1.894154 -1.2e-5,-0.699202 -0.208734,-1.257533 -0.626166,-1.674996 -0.417456,-0.417425 -0.991442,-0.626147 -1.721959,-0.626167 -0.751409,2e-5 -1.361921,0.227005 -1.831537,0.680957 -0.469633,0.453989 -0.787934,1.249741 -0.954905,2.38726 z"
     id="path2817"
     style="font-size:32.05973434px;font-style:normal;font-variant:normal;font-weight:900;font-stretch:normal;text-align:start;line-height:125%;writing-mode:lr-tb;text-anchor:start;fill:#000000;fill-opacity:1;stroke:none;font-family:Arial Black;-inkscape-font-specification:Arial Black Heavy" />
</svg>
