<?xml version="1.0" encoding="UTF-8" standalone="no"?>
<!DOCTYPE svg PUBLIC "-//W3C//DTD SVG 1.0//EN" "http://www.w3.org/TR/2001/REC-SVG-20010904/DTD/svg10.dtd">
<!-- Created with Inkscape (http://www.inkscape.org/) -->

<!-- DOCTYPE and viewBox fix by in[k]firmary (http://inkfirmary.48design.de) -->
<svg
   xmlns:svg="http://www.w3.org/2000/svg"
   xmlns="http://www.w3.org/2000/svg"
   version="1.0"
   width="100%"
   height="100%"
   viewBox="0 0 50 50"
   id="svg2"
   style="display:inline">
  <defs
     id="defs5" />
  <path
     d="m 24.350941,41.044368 -44.570526,0 L 2.065678,2.4451599 24.350941,41.044368 z"
     transform="matrix(-1.0881631,0,0,-1.0883144,27.248446,48.66514)"
     id="path2820"
     style="fill:#ffffff;fill-opacity:1;stroke:#000000;stroke-width:0.45945799;stroke-linecap:square;stroke-miterlimit:4;stroke-opacity:1;stroke-dasharray:none" />
  <path
     d="m 25.0611,41.454378 -45.990844,0 L 2.065678,1.6251392 25.0611,41.454378 z"
     transform="matrix(-0.87860812,0,0,-0.87873028,26.815573,42.834391)"
     id="path2820-1"
     style="fill:#ffd900;fill-opacity:1;stroke:none;display:inline" />
  <path
     d="m 22.629982,14.717967 -4.598023,-0.824061 c 0.382172,-1.464984 1.116661,-2.587617 2.203468,-3.367903 1.086801,-0.780254 2.625446,-1.1703889 4.615938,-1.1704065 2.285068,1.76e-5 3.93717,0.4259815 4.956311,1.2778925 1.019115,0.851944 1.528679,1.922825 1.528693,3.212645 -1.4e-5,0.756397 -0.207024,1.441124 -0.621031,2.054182 -0.414035,0.61308 -1.039047,1.150511 -1.875039,1.612294 0.676753,0.16721 1.19428,0.362278 1.55258,0.585203 0.581208,0.358296 1.033048,0.830041 1.355521,1.415236 0.322444,0.58521 0.483673,1.28387 0.483689,2.095982 -1.6e-5,1.019134 -0.266741,1.996461 -0.800176,2.931987 -0.533464,0.93553 -1.301791,1.656085 -2.304983,2.161667 -1.003216,0.505584 -2.320917,0.758375 -3.953106,0.758376 -1.592396,-1e-6 -2.848392,-0.187106 -3.767991,-0.561317 -0.919608,-0.374211 -1.675992,-0.921595 -2.269154,-1.642151 -0.593167,-0.720554 -1.048988,-1.626224 -1.367465,-2.717014 l 4.860768,-0.644918 c 0.191081,0.979323 0.487663,1.658079 0.889748,2.036267 0.402071,0.378196 0.913626,0.567292 1.534664,0.567289 0.652871,3e-6 1.196274,-0.238855 1.630209,-0.716575 0.433916,-0.477713 0.650879,-1.114668 0.650889,-1.910867 -10e-6,-0.812112 -0.209011,-1.441105 -0.627003,-1.886981 -0.418012,-0.445861 -0.9853,-0.668795 -1.701866,-0.668803 -0.382181,8e-6 -0.907669,0.09555 -1.576465,0.28663 l 0.250801,-3.475389 c 0.270699,0.03982 0.48169,0.05973 0.632975,0.05971 0.636947,1.1e-5 1.168407,-0.203018 1.594379,-0.609089 0.425955,-0.406047 0.638937,-0.887744 0.638946,-1.445093 -9e-6,-0.533437 -0.159248,-0.9594 -0.477716,-1.277892 -0.318487,-0.318463 -0.756393,-0.477702 -1.313721,-0.477717 -0.573267,1.5e-5 -1.039041,0.173187 -1.397321,0.519518 -0.358294,0.346358 -0.601133,0.953455 -0.728519,1.821294 z"
     id="path2817"
     style="font-size:32.05973434px;font-style:normal;font-variant:normal;font-weight:900;font-stretch:normal;text-align:start;line-height:125%;writing-mode:lr-tb;text-anchor:start;fill:#000000;fill-opacity:1;stroke:none;font-family:Arial Black;-inkscape-font-specification:Arial Black Heavy" />
</svg>
