<?xml version="1.0" encoding="UTF-8" standalone="no"?>
<!DOCTYPE svg PUBLIC "-//W3C//DTD SVG 1.0//EN" "http://www.w3.org/TR/2001/REC-SVG-20010904/DTD/svg10.dtd">
<!-- Created with Inkscape (http://www.inkscape.org/) -->

<!-- DOCTYPE and viewBox fix by in[k]firmary (http://inkfirmary.48design.de) -->
<svg
   xmlns:svg="http://www.w3.org/2000/svg"
   xmlns="http://www.w3.org/2000/svg"
   xmlns:xlink="http://www.w3.org/1999/xlink"
   version="1.0"
   width="100%"
   height="100%"
   viewBox="0 0 50 50"
   id="svg2"
   style="display:inline">
  <defs
     id="defs5" />
  <rect
     width="31.5"
     height="45.5"
     x="9.25"
     y="2.25"
     id="rect2816"
     style="fill:#8c8c8c;fill-opacity:1;stroke:#000000;stroke-width:0.5;stroke-opacity:1" />
  <path
     d="m 20.011652,14.459746 a 1,1 0 0 1 -2,0 1,1 0 1 1 2,0 z"
     id="path2817-41"
     style="fill:#666666;fill-opacity:1;stroke:#000000;stroke-width:0.25;stroke-opacity:1;display:inline" />
  <path
     d="m 23.005826,14.459746 a 1,1 0 0 1 -2,0 1,1 0 1 1 2,0 z"
     id="path2817-1-1"
     style="fill:#ffffff;fill-opacity:1;stroke:#000000;stroke-width:0.25;stroke-opacity:1;display:inline" />
  <path
     d="m 31.988347,14.459746 a 1,1 0 0 1 -2,0 1,1 0 1 1 2,0 z"
     id="path2817-8-2"
     style="fill:#666666;fill-opacity:1;stroke:#000000;stroke-width:0.25;stroke-opacity:1;display:inline" />
  <use
     transform="translate(2.9941732,3.0115004)"
     id="use3289"
     x="0"
     y="0"
     width="50"
     height="50"
     xlink:href="#path2817-41" />
  <use
     transform="translate(5.9883473,3.0115004)"
     id="use3289-8"
     style="display:inline"
     x="0"
     y="0"
     width="50"
     height="50"
     xlink:href="#path2817-41" />
  <use
     transform="translate(8.9825211,3.0115004)"
     id="use3289-5"
     style="display:inline"
     x="0"
     y="0"
     width="50"
     height="50"
     xlink:href="#path2817-41" />
  <use
     transform="translate(0,6.0230016)"
     id="use3289-9"
     style="display:inline"
     x="0"
     y="0"
     width="50"
     height="50"
     xlink:href="#path2817-41" />
  <use
     transform="translate(2.9941745,6.0230016)"
     id="use3289-6"
     style="display:inline"
     x="0"
     y="0"
     width="50"
     height="50"
     xlink:href="#path2817-41" />
  <use
     transform="translate(5.9883475,6.0230016)"
     id="use3289-3"
     style="display:inline"
     x="0"
     y="0"
     width="50"
     height="50"
     xlink:href="#path2817-41" />
  <use
     transform="translate(8.9825204,6.0230016)"
     id="use3289-93"
     style="display:inline"
     x="0"
     y="0"
     width="50"
     height="50"
     xlink:href="#path2817-41" />
  <use
     transform="translate(11.976695,9.0345003)"
     id="use3289-4"
     style="display:inline"
     x="0"
     y="0"
     width="50"
     height="50"
     xlink:href="#path2817-41" />
  <use
     transform="translate(2.9941745,9.0345003)"
     id="use3289-60"
     style="display:inline"
     x="0"
     y="0"
     width="50"
     height="50"
     xlink:href="#path2817-41" />
  <use
     transform="translate(0,9.0345003)"
     id="use3289-61"
     style="display:inline"
     x="0"
     y="0"
     width="50"
     height="50"
     xlink:href="#path2817-41" />
  <use
     transform="translate(8.9825218,12.046005)"
     id="use3289-49"
     style="display:inline"
     x="0"
     y="0"
     width="50"
     height="50"
     xlink:href="#path2817-41" />
  <use
     transform="translate(5.9883482,12.046005)"
     id="use3289-7"
     style="display:inline"
     x="0"
     y="0"
     width="50"
     height="50"
     xlink:href="#path2817-41" />
  <use
     transform="translate(2.9941732,12.046005)"
     id="use3289-2"
     style="display:inline"
     x="0"
     y="0"
     width="50"
     height="50"
     xlink:href="#path2817-41" />
  <use
     transform="translate(0,12.046005)"
     id="use3289-1"
     style="display:inline"
     x="0"
     y="0"
     width="50"
     height="50"
     xlink:href="#path2817-41" />
  <use
     transform="translate(2.9941745,15.057504)"
     id="use3289-59"
     style="display:inline"
     x="0"
     y="0"
     width="50"
     height="50"
     xlink:href="#path2817-41" />
  <use
     transform="translate(5.9883473,15.057504)"
     id="use3289-0"
     style="display:inline"
     x="0"
     y="0"
     width="50"
     height="50"
     xlink:href="#path2817-41" />
  <use
     transform="translate(8.9825217,15.057504)"
     id="use3289-63"
     style="display:inline"
     x="0"
     y="0"
     width="50"
     height="50"
     xlink:href="#path2817-41" />
  <use
     transform="translate(2.9941732,18.069006)"
     id="use3289-54"
     style="display:inline"
     x="0"
     y="0"
     width="50"
     height="50"
     xlink:href="#path2817-41" />
  <use
     transform="translate(5.9883476,18.069006)"
     id="use3289-09"
     style="display:inline"
     x="0"
     y="0"
     width="50"
     height="50"
     xlink:href="#path2817-41" />
  <use
     transform="translate(8.9825208,18.069006)"
     id="use3289-72"
     style="display:inline"
     x="0"
     y="0"
     width="50"
     height="50"
     xlink:href="#path2817-41" />
  <use
     transform="translate(0,21.080508)"
     id="use3289-16"
     style="display:inline"
     x="0"
     y="0"
     width="50"
     height="50"
     xlink:href="#path2817-41" />
  <use
     transform="translate(11.976695,21.080508)"
     id="use3289-75"
     style="display:inline"
     x="0"
     y="0"
     width="50"
     height="50"
     xlink:href="#path2817-41" />
  <use
     transform="translate(2.9941717,0)"
     id="use3506"
     x="0"
     y="0"
     width="50"
     height="50"
     xlink:href="#path2817-1-1" />
  <use
     transform="translate(5.9883459,0)"
     id="use3506-4"
     style="display:inline"
     x="0"
     y="0"
     width="50"
     height="50"
     xlink:href="#path2817-1-1" />
  <use
     transform="translate(-2.994174,3.0115004)"
     id="use3506-2"
     style="display:inline"
     x="0"
     y="0"
     width="50"
     height="50"
     xlink:href="#path2817-1-1" />
  <use
     transform="translate(8.982521,3.0115004)"
     id="use3506-0"
     style="display:inline"
     x="0"
     y="0"
     width="50"
     height="50"
     xlink:href="#path2817-1-1" />
  <use
     transform="translate(8.982521,6.0230016)"
     id="use3506-6"
     style="display:inline"
     x="0"
     y="0"
     width="50"
     height="50"
     xlink:href="#path2817-1-1" />
  <use
     transform="translate(2.9941738,9.0345003)"
     id="use3506-1"
     style="display:inline"
     x="0"
     y="0"
     width="50"
     height="50"
     xlink:href="#path2817-1-1" />
  <use
     transform="translate(5.9883477,9.0345003)"
     id="use3506-7"
     style="display:inline"
     x="0"
     y="0"
     width="50"
     height="50"
     xlink:href="#path2817-1-1" />
  <use
     transform="translate(8.982521,12.046005)"
     id="use3506-3"
     style="display:inline"
     x="0"
     y="0"
     width="50"
     height="50"
     xlink:href="#path2817-1-1" />
  <use
     transform="translate(8.982521,15.057504)"
     id="use3506-5"
     style="display:inline"
     x="0"
     y="0"
     width="50"
     height="50"
     xlink:href="#path2817-1-1" />
  <use
     transform="translate(8.982521,18.069006)"
     id="use3506-9"
     style="display:inline"
     x="0"
     y="0"
     width="50"
     height="50"
     xlink:href="#path2817-1-1" />
  <use
     transform="translate(5.9883469,21.080508)"
     id="use3506-18"
     style="display:inline"
     x="0"
     y="0"
     width="50"
     height="50"
     xlink:href="#path2817-1-1" />
  <use
     transform="translate(2.9941728,21.080508)"
     id="use3506-66"
     style="display:inline"
     x="0"
     y="0"
     width="50"
     height="50"
     xlink:href="#path2817-1-1" />
  <use
     transform="translate(-8.9731323e-7,21.080508)"
     id="use3506-8"
     style="display:inline"
     x="0"
     y="0"
     width="50"
     height="50"
     xlink:href="#path2817-1-1" />
  <use
     transform="translate(-2.994174,18.069006)"
     id="use3506-25"
     style="display:inline"
     x="0"
     y="0"
     width="50"
     height="50"
     xlink:href="#path2817-1-1" />
  <use
     transform="translate(-2.994174,15.057504)"
     id="use3506-47"
     style="display:inline"
     x="0"
     y="0"
     width="50"
     height="50"
     xlink:href="#path2817-1-1" />
</svg>
