<?xml version="1.0" encoding="UTF-8" standalone="no"?>
<!DOCTYPE svg PUBLIC "-//W3C//DTD SVG 1.0//EN" "http://www.w3.org/TR/2001/REC-SVG-20010904/DTD/svg10.dtd">
<!-- Created with Inkscape (http://www.inkscape.org/) -->

<!-- DOCTYPE and viewBox fix by in[k]firmary (http://inkfirmary.48design.de) -->
<svg
   xmlns:svg="http://www.w3.org/2000/svg"
   xmlns="http://www.w3.org/2000/svg"
   version="1.0"
   width="100%"
   height="100%"
   viewBox="0 0 50 50"
   id="svg2"
   style="display:inline">
  <defs
     id="defs5" />
  <rect
     width="40"
     height="40"
     x="5"
     y="5"
     id="rect3591"
     style="fill:#ffffff;fill-opacity:1;stroke:#000000;stroke-width:0.5;stroke-opacity:1" />
  <path
     d="m 25.95339,17.902542 a 5.0317798,4.0254235 0 1 1 -10.06356,0 5.0317798,4.0254235 0 1 1 10.06356,0 z"
     transform="matrix(0.69557893,0,0,0.86947373,10.447369,-0.56579008)"
     id="path2816"
     style="fill:#000000;fill-opacity:1;stroke:none" />
  <path
     d="m 25.95339,17.902542 a 5.0317798,4.0254235 0 1 1 -10.06356,0 5.0317798,4.0254235 0 1 1 10.06356,0 z"
     transform="matrix(0.69557893,0,0,0.86947373,10.447369,19.43421)"
     id="path2816-1"
     style="fill:#000000;fill-opacity:1;stroke:none;display:inline" />
  <path
     d="M 41.78125,5.25 5.25,41.71875 l 0,3.03125 2.59375,0 L 44.75,7.9375 l 0,-2.6875 -2.96875,0 z"
     id="path2844"
     style="font-size:medium;font-style:normal;font-variant:normal;font-weight:normal;font-stretch:normal;text-indent:0;text-align:start;text-decoration:none;line-height:normal;letter-spacing:normal;word-spacing:normal;text-transform:none;direction:ltr;block-progression:tb;writing-mode:lr-tb;text-anchor:start;color:#000000;fill:#ff0000;fill-opacity:1;stroke:none;stroke-width:4;marker:none;visibility:visible;display:inline;overflow:visible;enable-background:accumulate;font-family:Bitstream Vera Sans;-inkscape-font-specification:Bitstream Vera Sans" />
</svg>
