<?xml version="1.0" encoding="UTF-8" standalone="no"?>
<svg
   xmlns:dc="http://purl.org/dc/elements/1.1/"
   xmlns:cc="http://creativecommons.org/ns#"
   xmlns:rdf="http://www.w3.org/1999/02/22-rdf-syntax-ns#"
   xmlns:svg="http://www.w3.org/2000/svg"
   xmlns="http://www.w3.org/2000/svg"
   viewBox="0 0 50 50"
   style="display:inline"
   id="svg2"
   height="100%"
   width="100%"
   version="1.0">
  <metadata
     id="metadata13">
    <rdf:RDF>
      <cc:Work
         rdf:about="">
        <dc:format>image/svg+xml</dc:format>
        <dc:type
           rdf:resource="http://purl.org/dc/dcmitype/StillImage" />
        <dc:title></dc:title>
      </cc:Work>
    </rdf:RDF>
  </metadata>
  <defs
     id="defs5" />
  <g
     style="display:inline"
     id="layer2">
    <path
       style="fill:#000000;fill-opacity:1;stroke-width:1;stroke-miterlimit:4;stroke-dasharray:none"
       id="path3158"
       transform="matrix(0.3423038,0,0,0.251326,-0.2488703,-26.278203)"
       d="m 132.18924,204.03061 a 58.427643,79.577919 0 1 1 -116.855286,0 58.427643,79.577919 0 1 1 116.855286,0 z" />
    <text
       style="font-size:40px;font-style:normal;font-weight:normal;fill:#000000;fill-opacity:1;stroke:none;font-family:Bitstream Vera Sans"
       xml:space="preserve"
       id="text2818"
       y="24.834225"
       x="6.9223909"><tspan
         id="tspan2820"
         y="24.834225"
         x="6.9223909" /></text>
    <path
       style="fill:#55d400;fill-opacity:1;stroke:none;display:inline"
       id="path2471-8"
       d="m 41.422887,18.198765 c 0.739726,1.785856 -0.10833,3.833244 -1.894186,4.57297 -1.785856,0.739726 -3.833244,-0.10833 -4.57297,-1.894186 -0.739725,-1.785855 0.108331,-3.833243 1.894187,-4.57297 1.785856,-0.739725 3.833244,0.108331 4.572969,1.894186 z m -4.78e-4,10.926739 c 0.739725,1.785857 -0.108331,3.833245 -1.894187,4.572971 -1.785856,0.739726 -3.833244,-0.10833 -4.57297,-1.894187 -0.739726,-1.785855 0.10833,-3.833243 1.894187,-4.572969 1.785855,-0.739726 3.833244,0.10833 4.57297,1.894185 z m -7.727388,7.725356 c 0.739726,1.785857 -0.10833,3.833245 -1.894185,4.57297 -1.785857,0.739726 -3.833245,-0.10833 -4.572971,-1.894186 -0.739725,-1.785855 0.10833,-3.833244 1.894187,-4.572969 1.785855,-0.739726 3.833243,0.10833 4.572969,1.894185 z m -10.926739,-0.0024 c 0.739726,1.785857 -0.108331,3.833245 -1.894186,4.572971 -1.785856,0.739725 -3.833244,-0.10833 -4.57297,-1.894187 -0.739726,-1.785855 0.10833,-3.833243 1.894186,-4.572969 1.785856,-0.739726 3.833245,0.10833 4.57297,1.894185 z m -7.724003,-7.728729 c 0.739726,1.785857 -0.108331,3.833245 -1.894187,4.572971 -1.785856,0.739726 -3.8332441,-0.10833 -4.57297,-1.894187 -0.7397256,-1.785855 0.1083303,-3.833243 1.894187,-4.572969 1.785855,-0.739726 3.833244,0.10833 4.57297,1.894185 z m 0.0043,-10.926738 c 0.739726,1.785856 -0.10833,3.833244 -1.894186,4.57297 -1.785856,0.739726 -3.8332442,-0.10833 -4.5729701,-1.894186 -0.7397256,-1.785856 0.1083303,-3.833244 1.8941871,-4.57297 1.785855,-0.739725 3.833243,0.108331 4.572969,1.894186 z m 7.730092,-7.72265 c 0.739726,1.785856 -0.10833,3.833245 -1.894186,4.57297 -1.785856,0.739726 -3.833244,-0.10833 -4.57297,-1.894186 -0.739725,-1.785855 0.108331,-3.8332435 1.894187,-4.5729694 1.785855,-0.7397256 3.833243,0.1083303 4.572969,1.8941854 z m 10.926738,0.0062 c 0.739726,1.785856 -0.108331,3.833245 -1.894186,4.57297 -1.785857,0.739726 -3.833245,-0.10833 -4.572971,-1.894186 -0.739725,-1.785856 0.108331,-3.8332438 1.894187,-4.5729697 1.785855,-0.7397256 3.833244,0.1083299 4.57297,1.8941857 z m 7.717473,7.722203 c 0.739726,1.785856 -0.108331,3.833244 -1.894187,4.57297 -1.785856,0.739726 -3.833244,-0.10833 -4.57297,-1.894186 -0.739725,-1.785855 0.108331,-3.833243 1.894187,-4.57297 1.785856,-0.739725 3.833245,0.108331 4.57297,1.894186 z" />
  </g>
</svg>
