<svg xmlns="http://www.w3.org/2000/svg" viewBox="0 0 84 250"><path fill="#8c8c8c" d="M0 0h83.3v250H0z"/><path fill="#0c3" stroke="#000" stroke-width="4.23834" d="M70.8 41.7h0c0 16-13.1 29.1-29.1 29.1S12.5 57.7 12.5 41.7h0c0-16 13.2-29.2 29.2-29.2s29.1 13.2 29.1 29.2z"/><path fill="#ff0" stroke="#000" stroke-width="4.23834" d="M70.8 125h0c0 16-13.1 29.2-29.1 29.2S12.5 141 12.5 125h0c0-16 13.2-29.2 29.2-29.2S70.8 109 70.8 125zM70.8 208.3h0c0 16-13.1 29.2-29.1 29.2s-29.2-13.2-29.2-29.2h0c0-16 13.2-29.1 29.2-29.1s29.1 13.1 29.1 29.1z"/></svg>