<?xml version="1.0" encoding="UTF-8" standalone="no"?>
<svg
   xmlns:dc="http://purl.org/dc/elements/1.1/"
   xmlns:cc="http://creativecommons.org/ns#"
   xmlns:rdf="http://www.w3.org/1999/02/22-rdf-syntax-ns#"
   xmlns:svg="http://www.w3.org/2000/svg"
   xmlns="http://www.w3.org/2000/svg"
   width="40"
   height="60"
   version="1.0">
  <metadata>
    <rdf:RDF>
      <cc:Work
         rdf:about="">
        <dc:format>image/svg+xml</dc:format>
        <dc:type
           rdf:resource="http://purl.org/dc/dcmitype/StillImage" />
      </cc:Work>
    </rdf:RDF>
  </metadata>
  <rect
    y="0"
    x="0"
    height="60"
    width="40"
    style="fill:#8c8c8c;stroke:none" />
  <path
    d="M 15.783633,9.4292383 A 6.8816643,6.8816643 0 1 1 2.0203047,9.4292383 A 6.8816643,6.8816643 0 1 1 15.783633,9.4292383 z"
    style="fill:#666666;stroke:#000000;stroke-width:0.98309481;stroke-miterlimit:4"
    transform="matrix(1.0171958,0,0,1.0171958,20.944955,0.4086184)" />
  <path
    d="M 15.783633,9.4292383 A 6.8816643,6.8816643 0 1 1 2.0203047,9.4292383 A 6.8816643,6.8816643 0 1 1 15.783633,9.4292383 z"
    style="fill:#666666;stroke:#000000;stroke-width:0.98309481;stroke-miterlimit:4"
    transform="matrix(1.0171958,0,0,1.0171958,0.9449545,20.408618)" />
  <path
    d="M 15.783633,9.4292383 A 6.8816643,6.8816643 0 1 1 2.0203047,9.4292383 A 6.8816643,6.8816643 0 1 1 15.783633,9.4292383 z"
    style="fill:#00cc33;stroke:#000000;stroke-width:0.98309481;stroke-miterlimit:4"
    transform="matrix(1.0171958,0,0,1.0171958,0.9449545,40.408618)" />
  <path
    d="M 15.783633,9.4292383 A 6.8816643,6.8816643 0 1 1 2.0203047,9.4292383 A 6.8816643,6.8816643 0 1 1 15.783633,9.4292383 z"
    style="fill:#00cc33;stroke:#000000;stroke-width:0.98309481;stroke-miterlimit:4"
    transform="matrix(1.0171958,0,0,1.0171958,20.944955,20.408618)" /> 
</svg>
