<?xml version="1.0" encoding="UTF-8" standalone="no"?>
<!DOCTYPE svg PUBLIC "-//W3C//DTD SVG 1.1//EN" "http://www.w3.org/Graphics/SVG/1.1/DTD/svg11.dtd">
<svg width="100%" height="100%" viewBox="0 0 596 842" version="1.1" xmlns="http://www.w3.org/2000/svg" xmlns:xlink="http://www.w3.org/1999/xlink" xml:space="preserve" xmlns:serif="http://www.serif.com/" style="fill-rule:evenodd;clip-rule:evenodd;">
    <g id="Ebene-1" serif:id="Ebene 1">
        <rect id="rect1" x="20.131" y="20.131" width="555.013" height="555.013" style="fill:rgb(193,91,15);stroke:rgb(240,201,0);stroke-width:40.26px;"/>
        <path id="path1" d="M20.363,573.665L573.665,21.767" style="fill:none;fill-rule:nonzero;stroke:rgb(240,201,0);stroke-width:42.52px;"/>
        <path id="path1-3" d="M20.131,407.503L404.411,24.199" style="fill:none;fill-rule:nonzero;stroke:rgb(240,201,0);stroke-width:42.52px;"/>
        <path id="path1-36" d="M184.368,570.759L573.868,182.247" style="fill:none;fill-rule:nonzero;stroke:rgb(240,201,0);stroke-width:42.52px;"/>
        <path id="path1-18" d="M354.341,574.317L570.951,358.257" style="fill:none;fill-rule:nonzero;stroke:rgb(240,201,0);stroke-width:42.52px;"/>
        <path id="path1-1" d="M24.301,242.985L247.721,20.131" style="fill:none;fill-rule:nonzero;stroke:rgb(240,201,0);stroke-width:42.52px;"/>
        <rect id="rect2" x="6.689" y="602.429" width="581.897" height="232.724" style="fill:white;stroke:black;stroke-width:13.38px;"/>
        <g transform="matrix(0.264583,0,0,0.264583,293.072,779.341)">
            <g id="text2">
                <path d="M-383.379,-185.729L-383.379,-251.298L-220.866,-251.298L-220.866,-158.12C-220.866,-112.734 -236.658,-74.354 -268.24,-42.981C-299.822,-11.608 -338.411,4.078 -384.006,4.079C-419.981,4.078 -450.151,-4.549 -474.518,-21.804C-498.884,-39.059 -516.401,-57.726 -527.068,-77.805C-534.597,-91.191 -539.826,-105.832 -542.754,-121.728C-545.682,-137.623 -547.146,-173.075 -547.146,-228.082C-547.146,-283.09 -545.682,-318.541 -542.754,-334.437C-539.826,-350.333 -534.597,-364.973 -527.068,-378.359C-516.401,-398.229 -498.884,-416.948 -474.518,-434.517C-450.151,-452.086 -419.981,-460.871 -384.006,-460.871C-340.712,-460.871 -304.894,-447.537 -276.554,-420.87C-248.213,-394.203 -230.488,-362.359 -223.376,-325.339L-296.476,-325.339C-302.123,-342.908 -312.633,-358.281 -328.006,-371.457C-343.378,-384.634 -362.045,-391.222 -384.006,-391.222C-400.32,-391.222 -414.438,-387.876 -426.36,-381.183C-438.282,-374.49 -447.694,-366.751 -454.596,-357.967C-463.59,-346.254 -469.707,-333.391 -472.949,-319.378C-476.191,-305.365 -477.812,-274.933 -477.812,-228.082C-477.812,-181.023 -476.191,-150.486 -472.949,-136.473C-469.707,-122.46 -463.59,-109.806 -454.596,-98.511C-447.694,-89.309 -438.282,-81.413 -426.36,-74.825C-414.438,-68.236 -400.32,-64.942 -384.006,-64.942C-357.653,-64.942 -335.43,-73.936 -317.339,-91.923C-299.247,-109.91 -290.201,-133.336 -290.201,-162.199L-290.201,-185.729L-383.379,-185.729Z" style="fill-rule:nonzero;stroke:black;stroke-opacity:0;stroke-width:42.85px;"/>
                <path d="M-179.768,-58.668L-133.963,-110.747C-116.812,-96.943 -97.047,-85.858 -74.668,-77.492C-52.288,-69.125 -28.863,-64.942 -4.392,-64.942C23.844,-64.942 46.014,-70.799 62.119,-82.511C78.224,-94.224 86.276,-109.597 86.276,-128.63C86.276,-164.604 66.406,-185.206 26.667,-190.435C16.209,-191.69 6.484,-192.944 -2.51,-194.199C-11.503,-195.454 -21.961,-196.918 -33.883,-198.592C-73.413,-204.03 -103.531,-218.513 -124.237,-242.043C-144.944,-265.573 -155.297,-293.966 -155.297,-327.221C-155.297,-366.124 -142.277,-398.124 -116.237,-423.223C-90.198,-448.321 -53.543,-460.871 -6.275,-460.871C21.961,-460.871 48.524,-456.374 73.413,-447.38C98.302,-438.386 121.205,-426.988 142.12,-413.183L103.531,-356.084C86.799,-366.542 68.812,-375.013 49.569,-381.497C30.327,-387.98 10.667,-391.222 -9.412,-391.222C-30.746,-391.222 -48.837,-385.784 -63.687,-374.908C-78.537,-364.032 -85.962,-347.718 -85.962,-325.966C-85.962,-312.999 -80.943,-300.868 -70.903,-289.574C-60.864,-278.279 -44.236,-270.854 -21.02,-267.299C-14.954,-266.253 -7.634,-265.155 0.941,-264.004C9.517,-262.854 19.347,-261.651 30.432,-260.397C73.099,-255.168 104.629,-239.69 125.022,-213.964C145.414,-188.238 155.61,-159.794 155.61,-128.63C155.61,-86.59 141.074,-53.962 112.002,-30.746C82.93,-7.53 43.922,4.078 -5.02,4.079C-73.831,4.078 -132.081,-16.837 -179.768,-58.668Z" style="fill-rule:nonzero;stroke:black;stroke-opacity:0;stroke-width:42.85px;"/>
                <path d="M180.709,0L347.614,-457.419L404.713,-457.419L571.617,0L498.832,0L463.694,-103.217L290.201,-103.217L253.808,0L180.709,0ZM310.593,-164.395L442.988,-164.395C433.367,-192.631 425.785,-214.749 420.242,-230.749C414.7,-246.749 409.889,-260.919 405.811,-273.26C401.732,-285.6 397.601,-298.149 393.418,-310.907C389.235,-323.666 383.693,-340.921 376.791,-362.673C369.47,-340.084 363.614,-322.045 359.222,-308.554C354.83,-295.064 350.594,-282.044 346.516,-269.495C342.437,-256.946 337.731,-242.932 332.398,-227.455C327.064,-211.977 319.796,-190.957 310.593,-164.395Z" style="fill-rule:nonzero;stroke:black;stroke-opacity:0;stroke-width:42.85px;"/>
            </g>
        </g>
    </g>
</svg>
