<?xml version="1.0" encoding="UTF-8" standalone="no"?>
<svg
   xmlns:dc="http://purl.org/dc/elements/1.1/"
   xmlns:cc="http://creativecommons.org/ns#"
   xmlns:rdf="http://www.w3.org/1999/02/22-rdf-syntax-ns#"
   xmlns:svg="http://www.w3.org/2000/svg"
   xmlns="http://www.w3.org/2000/svg"
   viewBox="0 0 1293.307 1293.307"
   height="1293.307"
   width="1293.307"
   xml:space="preserve"
   version="1.1"
   id="svg4725"><metadata
     id="metadata4731"><rdf:RDF><cc:Work
         rdf:about=""><dc:format>image/svg+xml</dc:format><dc:type
           rdf:resource="http://purl.org/dc/dcmitype/StillImage" /><dc:title></dc:title></cc:Work></rdf:RDF></metadata><defs
     id="defs4729" /><g
     transform="matrix(1.25,0,0,-1.25,0,1293.307)"
     id="g4733"><g
       id="g4735"><path
         id="path4737"
         style="fill:#eeb110;fill-opacity:1;fill-rule:evenodd;stroke:none"
         d="m 1034.645,517.321 c 0,-137.203 -54.504,-268.781 -151.52,-365.8 C 786.105,54.505 654.523,0.001 517.32,0.001 380.117,0.001 248.535,54.505 151.516,151.521 54.5,248.54 0,380.118 0,517.321 c 0,137.207 54.5,268.786 151.516,365.801 97.019,97.02 228.601,151.524 365.804,151.524 137.203,0 268.785,-54.504 365.805,-151.524 97.016,-97.015 151.52,-228.594 151.52,-365.801 z" /><path
         id="path4739"
         style="fill:#00654e;fill-opacity:1;fill-rule:evenodd;stroke:none"
         d="m 516.863,1012.927 c -131.562,0 -257.738,-52.27 -350.769,-145.297 C 73.066,774.603 20.801,648.423 20.801,516.864 20.801,385.298 73.066,259.122 166.094,166.091 259.125,73.068 385.301,20.798 516.863,20.798 c 131.563,0 257.739,52.27 350.77,145.293 93.027,93.031 145.293,219.207 145.293,350.773 0,131.559 -52.266,257.739 -145.293,350.766 -93.031,93.027 -219.207,145.297 -350.77,145.297 z m 0.098,-84.117 c 109.008,0 213.555,-43.309 290.637,-120.391 C 884.68,731.337 927.984,626.794 927.984,517.782 927.984,408.775 884.68,304.232 807.598,227.15 730.516,150.068 625.969,106.759 516.961,106.759 c -109.012,0 -213.555,43.309 -290.637,120.391 -77.082,77.082 -120.386,181.625 -120.386,290.632 0,109.012 43.304,213.555 120.386,290.637 77.082,77.082 181.625,120.391 290.637,120.391 z" /><path
         id="path4741"
         style="fill:#00654e;fill-opacity:1;fill-rule:evenodd;stroke:none"
         d="m 392.18,741.493 94.636,0 0,-448.465 -94.636,0 0,181.215 -95.106,0 0,-181.215 -94.629,0 0,448.465 94.629,0 0,-183.465 95.106,0 0,183.465 z" /><path
         id="path4743"
         style="fill:#00654e;fill-opacity:1;fill-rule:evenodd;stroke:none"
         d="m 736.242,741.493 94.637,0 0,-448.465 -94.637,0 0,181.215 -95.105,0 0,-181.215 -94.625,0 0,448.465 94.625,0 0,-183.465 95.105,0 0,183.465 z" /></g></g></svg>