<?xml version="1.0" encoding="UTF-8" standalone="no"?>
<svg
   xmlns:dc="http://purl.org/dc/elements/1.1/"
   xmlns:cc="http://creativecommons.org/ns#"
   xmlns:rdf="http://www.w3.org/1999/02/22-rdf-syntax-ns#"
   xmlns:svg="http://www.w3.org/2000/svg"
   xmlns="http://www.w3.org/2000/svg"
   viewBox="0 0 1293.3073 1293.3073"
   height="1293.3073"
   width="1293.3073"
   xml:space="preserve"
   version="1.1"
   id="svg7724"><metadata
     id="metadata7730"><rdf:RDF><cc:Work
         rdf:about=""><dc:format>image/svg+xml</dc:format><dc:type
           rdf:resource="http://purl.org/dc/dcmitype/StillImage" /><dc:title></dc:title></cc:Work></rdf:RDF></metadata><defs
     id="defs7728" /><g
     transform="matrix(1.25,0,0,-1.25,0,1293.3072)"
     id="g7732"><g
       id="g7734"><path
         id="path7736"
         style="fill:#eeb110;fill-opacity:1;fill-rule:evenodd;stroke:none"
         d="m 1034.645,517.322 c 0,-137.204 -54.504,-268.782 -151.52,-365.801 C 786.105,54.505 654.523,0.001 517.32,0.001 380.117,0.001 248.535,54.505 151.516,151.521 54.5,248.54 0,380.118 0,517.322 c 0,137.207 54.5,268.785 151.516,365.8 97.019,97.02 228.601,151.524 365.804,151.524 137.203,0 268.785,-54.504 365.805,-151.524 97.016,-97.015 151.52,-228.593 151.52,-365.8 z" /><path
         id="path7738"
         style="fill:#00654e;fill-opacity:1;fill-rule:evenodd;stroke:none"
         d="m 517.34,1013.404 c -131.563,0 -257.738,-52.27 -350.77,-145.293 C 73.543,775.079 21.277,648.904 21.277,517.337 21.277,385.779 73.543,259.599 166.57,166.572 259.602,73.544 385.777,21.279 517.34,21.279 c 131.562,0 257.738,52.265 350.769,145.293 93.028,93.027 145.293,219.207 145.293,350.765 0,131.567 -52.265,257.742 -145.293,350.774 -93.031,93.023 -219.207,145.293 -350.769,145.293 z m 0.098,-84.118 c 109.007,0 213.554,-43.304 290.636,-120.386 77.082,-77.082 120.387,-181.625 120.387,-290.641 0,-109.008 -43.305,-213.551 -120.387,-290.633 C 730.992,150.544 626.445,107.24 517.438,107.24 c -109.012,0 -213.555,43.304 -290.637,120.386 -77.082,77.082 -120.387,181.625 -120.387,290.633 0,109.016 43.305,213.559 120.387,290.641 77.082,77.082 181.625,120.386 290.637,120.386 z" /><path
         id="path7740"
         style="fill:#00654e;fill-opacity:1;fill-rule:evenodd;stroke:none"
         d="m 610.438,810.247 120.355,0 0,-583.941 -120.355,0 0,235.957 -188.766,0 0,-235.957 -120.352,0 0,583.941 120.352,0 0,-238.886 188.766,0 0,238.886 z" /></g></g></svg>