<?xml version="1.0" encoding="UTF-8"?>
<!-- Created with Inkscape (http://www.inkscape.org/) -->
<svg width="272.72" height="272.72" version="1.1" viewBox="0 0 72.157 72.157" xml:space="preserve" xmlns="http://www.w3.org/2000/svg" xmlns:ooo="http://xml.openoffice.org/svg/export"><defs/><g transform="translate(-70.734 -114.41)"><g transform="matrix(1 0 0 1.0019 1.9998 1.783)" stroke-width=".99905"><rect x="70.734" y="114.41" width="68.157" height="68.028" rx="3.7364" ry="3.7364" stroke-width=".793" style="-inkscape-stroke:none"/><path d="m132.25 149.6a27.464 27.234 0 0 1-28.513 26.038 27.464 27.234 0 0 1-26.372-28.169 27.464 27.234 0 0 1 28.3-26.266 27.464 27.234 0 0 1 26.601 27.957" fill="#fff" stroke-width=".793" style="-inkscape-stroke:none"/><g transform="matrix(.074964 0 0 .074823 83.287 136.25)"><path d="m120.41 74.401 0.0312 0.1875-16.562 0.0625-5.8125 8.3125-36.969-0.09375-28.844 69.031h0.03125v76h44.562v5.1562h32.969c-0.0604 0.53476-0.0937 1.0741-0.0937 1.625 0 7.9277 6.416 14.375 14.344 14.375s14.375-6.4473 14.375-14.375c0-0.55091-0.0646-1.0902-0.125-1.625h29.5c-0.0604 0.53476-0.0937 1.0741-0.0937 1.625 0 7.9277 6.416 14.375 14.344 14.375s14.375-6.4473 14.375-14.375c0-0.55091-0.0646-1.0902-0.125-1.625h185.5c-0.0604 0.53476-0.0937 1.0741-0.0937 1.625 0 7.9277 6.416 14.375 14.344 14.375s14.375-6.4473 14.375-14.375c0-0.55091-0.0646-1.0902-0.125-1.625h29.5c-0.0604 0.53476-0.0937 1.0741-0.0937 1.625 0 7.9277 6.416 14.375 14.344 14.375s14.375-6.4473 14.375-14.375c0-0.55091-0.0646-1.0902-0.125-1.625h31.969v-5.1562h43.406v-76l-28.844-69.031-160.56 0.84375h-0.28125l-140.41-0.40625-6.0312-8.6562-16.562-0.0625 0.0312-0.1875-35.312 0.09375zm-61.406 30.906h36.406v46.594h-55.25zm42.813 0h46.781c0.0288 36.073-0.16482 76.008-0.15625 108.53h-46.531c0.064-35.72-0.10058-75.552-0.0937-108.53zm53.219 0h69.062v46.594h-69.062zm75.469 0h67.656v46.594h-67.656zm74.062 0h63.969v46.594h-63.969zm70.375 0h46.562v46.594h-0.0312v61.875h-46.594c-0.0759-35.586 0.0701-74.704 0.0625-108.47zm52.969 0h46.656c0.0124 36.05-0.0658 76.046-0.0625 108.47h-46.594c-0.0288-43.337 0-43.47 0-108.47zm53.094 0h35.938l18.844 46.594h-54.781z" fill-rule="evenodd"/><rect y="248.77" width="574.27" height="5.1427"/><path d="m95.302 42.804 56.436-39.804 55.208 39.772-55.169 39.79z" fill="none" stroke="#000" stroke-width="6"/></g></g></g></svg>
