<?xml version="1.0" encoding="UTF-8" standalone="no"?>
<!-- Created with Inkscape (http://www.inkscape.org/) -->

<!-- DOCTYPE and viewBox fix by in[k]firmary (http://inkfirmary.48design.de) -->

<svg
   version="1.0"
   width="100%"
   height="100%"
   viewBox="0 0 50 50"
   id="svg2"
   style="display:inline"
   sodipodi:docname="OPNV Anforderungssignal S.svg"
   xml:space="preserve"
   inkscape:version="1.4 (86a8ad7, 2024-10-11)"
   xmlns:inkscape="http://www.inkscape.org/namespaces/inkscape"
   xmlns:sodipodi="http://sodipodi.sourceforge.net/DTD/sodipodi-0.dtd"
   xmlns="http://www.w3.org/2000/svg"
   xmlns:svg="http://www.w3.org/2000/svg"
   xmlns:rdf="http://www.w3.org/1999/02/22-rdf-syntax-ns#"
   xmlns:cc="http://creativecommons.org/ns#"><sodipodi:namedview
     id="namedview1"
     pagecolor="#505050"
     bordercolor="#eeeeee"
     borderopacity="1"
     inkscape:showpageshadow="0"
     inkscape:pageopacity="0"
     inkscape:pagecheckerboard="0"
     inkscape:deskcolor="#d1d1d1"
     inkscape:zoom="11.313709"
     inkscape:cx="12.330174"
     inkscape:cy="22.848388"
     inkscape:window-width="1920"
     inkscape:window-height="1017"
     inkscape:window-x="-8"
     inkscape:window-y="-8"
     inkscape:window-maximized="1"
     inkscape:current-layer="svg2"
     showgrid="false" /><defs
     id="defs5"><inkscape:path-effect
       effect="mirror_symmetry"
       start_point="25,0"
       end_point="25,50"
       center_point="25,25"
       id="path-effect7"
       is_visible="true"
       lpeversion="1.2"
       lpesatellites=""
       mode="free"
       discard_orig_path="false"
       fuse_paths="false"
       oposite_fuse="false"
       split_items="false"
       split_open="false"
       link_styles="false" /></defs><path
     d="m 45.000009,24.999994 a 20.000004,20 0 0 1 -40.0000086,0 20.000004,20 0 1 1 40.0000086,0 z"
     id="path3158"
     style="fill:#000000;fill-opacity:1;stroke-width:1;stroke-miterlimit:4;stroke-dasharray:none" /><metadata
     id="metadata11"><rdf:RDF><cc:Work
         rdf:about=""><cc:license
           rdf:resource="http://creativecommons.org/publicdomain/zero/1.0/" /></cc:Work><cc:License
         rdf:about="http://creativecommons.org/publicdomain/zero/1.0/"><cc:permits
           rdf:resource="http://creativecommons.org/ns#Reproduction" /><cc:permits
           rdf:resource="http://creativecommons.org/ns#Distribution" /><cc:permits
           rdf:resource="http://creativecommons.org/ns#DerivativeWorks" /></cc:License></rdf:RDF></metadata><path
     d="m 13.760614,29.818223 5.431114,-0.528025 c 0.326866,1.822951 0.990039,3.16187 1.989523,4.016762 0.999466,0.854903 2.347815,1.282351 4.045049,1.282346 1.797785,5e-6 3.15242,-0.380299 4.063907,-1.140911 0.911454,-0.760601 1.36719,-1.650071 1.367208,-2.668412 -1.8e-5,-0.653737 -0.191741,-1.210048 -0.57517,-1.668937 -0.383464,-0.458868 -1.052924,-0.85803 -2.008381,-1.197485 -0.65376,-0.226285 -2.143544,-0.62859 -4.469355,-1.206914 -2.99215,-0.741737 -5.091676,-1.653208 -6.298585,-2.734416 -1.697226,-1.521199 -2.545837,-3.37557 -2.545835,-5.563121 -2e-6,-1.408045 0.399159,-2.724963 1.197486,-3.950759 0.798319,-1.225747 1.948658,-2.159219 3.451021,-2.800419 1.502348,-0.641145 3.315861,-0.961731 5.440543,-0.96176 3.469863,2.9e-5 6.081699,0.760635 7.835515,2.281823 1.753776,1.521239 2.674676,3.551619 2.762703,6.091146 l -5.581979,0.245155 c -0.238886,-1.420618 -0.751196,-2.442094 -1.53693,-3.06443 -0.785766,-0.622293 -1.964392,-0.93345 -3.535883,-0.933473 -1.621801,2.3e-5 -2.891575,0.333182 -3.809322,0.999476 -0.590894,0.427471 -0.886336,0.999497 -0.886328,1.716081 -8e-6,0.653765 0.276575,1.213219 0.829754,1.678365 0.704024,0.590904 2.413817,1.206932 5.129386,1.848087 2.715541,0.641191 4.72392,1.304364 6.025143,1.989523 1.301184,0.68519 2.319517,1.621805 3.055002,2.809848 0.73544,1.188068 1.103171,2.65585 1.103195,4.403352 -2.4e-5,1.584081 -0.440044,3.067579 -1.320062,4.450497 -0.880064,1.382925 -2.124693,2.410687 -3.733892,3.083289 -1.609236,0.672603 -3.614472,1.008904 -6.015714,1.008905 -3.495032,-10e-7 -6.179157,-0.807752 -8.052382,-2.423258 -1.873235,-1.615502 -2.992144,-3.969611 -3.356731,-7.062335 z"
     id="path2818"
     style="font-style:normal;font-variant:normal;font-weight:bold;font-stretch:normal;font-size:38.6213px;line-height:125%;font-family:Arial;-inkscape-font-specification:'Arial Bold';text-align:center;writing-mode:lr-tb;text-anchor:middle;fill:#ffffff;fill-opacity:1;stroke:none" /></svg>
